<?xml version="1.0" encoding="utf-8"?>
<!-- Generator: Adobe Illustrator 22.0.1, SVG Export Plug-In . SVG Version: 6.00 Build 0)  -->
<svg version="1.1" id="Layer_1" xmlns="http://www.w3.org/2000/svg" xmlns:xlink="http://www.w3.org/1999/xlink" x="0px" y="0px"
	 viewBox="0 0 30 21" style="enable-background:new 0 0 30 21;" xml:space="preserve">
<style type="text/css">
	.st0{fill:#FC5012;}
	.st1{fill:#FFFFFF;}
	.st2{fill:#7D7D7D;}
</style>
<g>
	<rect x="0.9" y="17.7" class="st1" width="28.3" height="2.5"/>
	<path class="st1" d="M15,1.2c0.5,0,1,0.5,1,1c0,0.3-0.1,0.5-0.3,0.7l-0.7,0.7L14.4,3C14.1,2.7,14,2.5,14,2.2
		C14,1.7,14.5,1.2,15,1.2 M15,4.5l1.2,0.1c5.5,0.6,9.7,5.5,9.7,11.3H8.1H7.9H7.6H7.3H7H4.3H4c0-5.8,4.2-10.7,9.7-11.3L15,4.5
		 M15,0.2c-1.1,0-2,0.9-2,2c0,0.6,0.3,1.1,0.6,1.4C7.6,4.3,3,9.6,3,16c0,0.3,0.1,0.7,0.1,1h1.2H7h0.3h0.3h0.3h0.2h18.8
		c0-0.3,0-0.7,0-1c0-6.4-4.6-11.6-10.6-12.3C16.7,3.3,17,2.8,17,2.2C17,1.1,16.1,0.2,15,0.2L15,0.2z"/>
</g>
</svg>
