<svg id="Layer_1" data-name="Layer 1" xmlns="http://www.w3.org/2000/svg" viewBox="0 0 73.11 70"><title>izi</title><path d="M39.49,23.15a11.79,11.79,0,0,1,5.32,1.26l1.25-2.52a14.62,14.62,0,0,0-6.57-1.55A14.85,14.85,0,0,0,25.36,30.69H21.67v2.8h3.1a15.43,15.43,0,0,0-.1,1.67,15.25,15.25,0,0,0,.1,1.66h-3.1v2.81h3.69A14.85,14.85,0,0,0,39.49,50a14.63,14.63,0,0,0,6.57-1.56l-1.25-2.51a12,12,0,0,1-16.46-6.28H37.3V36.82H27.61a11.38,11.38,0,0,1-.13-1.66,11.52,11.52,0,0,1,.13-1.67H37.3v-2.8H28.35A12,12,0,0,1,39.49,23.15Z"/><rect x="35.15" y="1" width="2.81" height="9.2"/><rect x="17.87" y="6.62" width="2.81" height="9.2" transform="translate(-2.91 13.47) rotate(-36)"/><rect x="7.19" y="21.32" width="2.81" height="9.2" transform="translate(-18.71 26.08) rotate(-72)"/><rect x="3.99" y="42.68" width="9.2" height="2.81" transform="translate(-13.21 4.82) rotate(-18.01)"/><rect x="14.68" y="57.38" width="9.2" height="2.81" transform="translate(-39.61 39.83) rotate(-54.01)"/><rect x="35.15" y="59.8" width="2.81" height="9.2"/><rect x="52.43" y="54.18" width="2.81" height="9.2" transform="matrix(0.81, -0.59, 0.59, 0.81, -24.27, 42.87)"/><rect x="63.11" y="39.48" width="2.81" height="9.2" transform="translate(2.65 91.81) rotate(-72)"/><rect x="59.92" y="24.51" width="9.2" height="2.81" transform="translate(-4.85 21.22) rotate(-18.01)"/><rect x="49.23" y="9.81" width="9.2" height="2.81" transform="translate(13.12 48.17) rotate(-54)"/></svg>