<svg id="Layer_1" data-name="Layer 1" xmlns="http://www.w3.org/2000/svg" viewBox="0 0 32.75 70"><title>izi</title><path d="M4.48,23.49c-.37-.06-.69-.13-1-.15a2.64,2.64,0,0,1-2.42-1.78,7,7,0,0,1-.61-2.43Q.37,12.92.46,6.71c0-1.64.26-3.28.41-4.92A.82.82,0,0,1,1,1.37c.12-.15.32-.35.47-.34s.36.26.38.42A18.29,18.29,0,0,1,2,3.53c.11,3.85.19,7.69.32,11.54a13.56,13.56,0,0,0,.38,2.25c0,.12.19.21.31.34a1.3,1.3,0,0,0,.69-1.28c.08-1.5.14-3,.19-4.5.09-3.15.17-6.3.26-9.45a5,5,0,0,1,.16-1.09c0-.13.28-.34.37-.31a.69.69,0,0,1,.42.38,13,13,0,0,1,.19,1.75c.11,3.88.19,7.76.32,11.64A15.86,15.86,0,0,0,6,17.18c0,.18.25.32.39.48A1.45,1.45,0,0,0,7,16.3c.08-1.91.13-3.81.19-5.71.09-2.64.17-5.28.27-7.91a7.24,7.24,0,0,1,.18-1.31c0-.14.25-.36.33-.34a.68.68,0,0,1,.45.35A7.45,7.45,0,0,1,8.61,2.8c.11,4,.2,8,.31,12a11.59,11.59,0,0,0,.17,1.86,6.05,6.05,0,0,0,.46,1.07,1.36,1.36,0,0,0,.77-1.36c.08-1.83.13-3.66.19-5.49.09-2.71.17-5.42.27-8.13a5.25,5.25,0,0,1,.16-1.19c.05-.2.28-.35.43-.53a3.81,3.81,0,0,1,.47.52,1,1,0,0,1,.08.43,125.58,125.58,0,0,1,.43,17.13,7.12,7.12,0,0,1-.46,2.13,2.88,2.88,0,0,1-2.75,2.15,9.54,9.54,0,0,0-1,.16c0,1.6-.11,3.17-.1,4.74,0,3.22,0,6.44.14,9.67.15,3.84.39,7.68.6,11.52.14,2.63.35,5.26.44,7.9a28.21,28.21,0,0,1-.84,8.38,12.63,12.63,0,0,1-.76,2c-.24.54-.6,1.12-1.24,1.13S5.3,68.32,5.1,67.74A25.33,25.33,0,0,1,4,63.86a32.48,32.48,0,0,1-.33-8.53c.25-3,.3-6.08.55-9.11.57-6.95.37-13.91.44-20.87,0-.48,0-1,0-1.43A3,3,0,0,0,4.48,23.49Z"/><path d="M31.7,1c.09.78.22,1.43.23,2.08.09,4.88.22,9.75.22,14.63,0,5.68-.16,11.36-.16,17,0,4.5.23,9,.56,13.5A97.46,97.46,0,0,1,33,60.33a23.09,23.09,0,0,1-.94,6,8.25,8.25,0,0,1-1.05,2.15c-.53.77-1.1.75-1.69,0a5.16,5.16,0,0,1-.76-1.33A18.74,18.74,0,0,1,27.49,62a50.11,50.11,0,0,1,.11-9c.18-2.67.4-5.33.5-8,.17-4.46.26-8.93.39-13.4a2,2,0,0,0-.4-1.54,14.51,14.51,0,0,1-3.33-6.72,25.64,25.64,0,0,1,.52-14.72,15.38,15.38,0,0,1,3.85-6.33,10.77,10.77,0,0,1,1.81-1.21C31.1,1,31.36,1,31.7,1Z"/></svg>