<svg id="Layer_1" data-name="Layer 1" xmlns="http://www.w3.org/2000/svg" viewBox="0 0 73.11 70"><title>izi</title><path d="M56.39,69.12a1.13,1.13,0,0,1-.72-.21l-2.52-1.55-2.52,1.55a1.11,1.11,0,0,1-.71.21,1.42,1.42,0,0,1-1.13-.56,1.22,1.22,0,0,1-.16-1.13l.74-2.89-2.33-2a1.33,1.33,0,0,1-.39-1.5,1.3,1.3,0,0,1,1.22-.9l3-.23L52,57.06a1.47,1.47,0,0,1,1.21-.71,1.24,1.24,0,0,1,1.28.85L55.64,60l3,.23a1.36,1.36,0,0,1,1.19,1,1.33,1.33,0,0,1-.63,1.41l-2.3,1.93.75,2.93a1.38,1.38,0,0,1-.28,1.15A1.31,1.31,0,0,1,56.39,69.12Zm-3.27-11.4-1.4,3.45-3.8.28a.1.1,0,0,0-.08.1l3,2.53-1,3.71s.1,0,.08.06l3.22-2,3.2,2,.08,0-.93-3.73,3-2.53.1-.08-.09,0-3.78-.28-1.43-3.54h-.08A.58.58,0,0,0,53.12,57.72ZM39.7,69.12a1.11,1.11,0,0,1-.71-.21l-2.61-1.56-2.52,1.56a1.13,1.13,0,0,1-.72.21A1.4,1.4,0,0,1,32,68.5a1.16,1.16,0,0,1-.13-1.11l.73-2.85-2.33-2a1.3,1.3,0,0,1-.43-1.37,1.43,1.43,0,0,1,1.17-1L34.06,60l1.12-2.75a1.24,1.24,0,0,1,1.28-.85,1.49,1.49,0,0,1,1.22.71l.06.11L38.87,60l3,.23h0a1.3,1.3,0,0,1,1.18.9,1.33,1.33,0,0,1-.4,1.5l-2.41,2L41,67.47a1.38,1.38,0,0,1-.28,1.18A1.32,1.32,0,0,1,39.7,69.12ZM36.38,57.63,35,61.17l-3.8.28-.06.06h0v.09l3,2.48-1,3.71s.08,0,.07.06l3.22-2,3.3,2h.08a.24.24,0,0,0,0-.1l-.94-3.66,3-2.47a.18.18,0,0,0,0-.15L38,61.17l-1.4-3.45a.4.4,0,0,0-.12-.1ZM22.67,69.12a1.14,1.14,0,0,1-.72-.21l-2.51-1.55-2.52,1.55a1.14,1.14,0,0,1-.72.21,1.31,1.31,0,0,1-1-.5,1.33,1.33,0,0,1-.29-1.12l.76-3-2.33-2a1.33,1.33,0,0,1-.39-1.5,1.31,1.31,0,0,1,1.23-.9l3-.23,1.19-2.89a1.47,1.47,0,0,1,1.21-.71,1.24,1.24,0,0,1,1.3.91L21.77,60l3,.23a1.46,1.46,0,0,1,1.22,1,1.3,1.3,0,0,1-.43,1.37l-2.33,2L24,67.47a1.34,1.34,0,0,1-.28,1.15A1.3,1.3,0,0,1,22.67,69.12ZM19.4,57.72,18,61.17l-3.81.28a.12.12,0,0,0-.08.1l3,2.53-.95,3.71.06,0h0l3.22-2,3.19,2,.08,0-.93-3.73,2.95-2.48v-.09s-.05,0-.1-.06l-3.78-.28L19.6,57.63h-.08Zm42.23-3.67H39.1L36.8,43.56l.17-.23c1.4-2,2-3.5,1.52-4.32s-1.94-.89-2.11-.89-1.67,0-2.11.89.12,2.35,1.52,4.32l.17.23-2.3,10.49H11.13V46.51a5.55,5.55,0,0,1,2-4.23A76.93,76.93,0,0,1,27.57,33V29.65A14.77,14.77,0,0,1,25.94,25c-.78-.41-1.47-1.69-2.09-3.9h0c-.57-2.11-.57-3.48,0-4.31a1.88,1.88,0,0,1,.9-.68,9.82,9.82,0,0,1-.05-5.4,10.61,10.61,0,0,1,3.05-5.39,17.47,17.47,0,0,1,2.84-2.3,9.91,9.91,0,0,1,2.76-1.42A8.05,8.05,0,0,1,36,1.17a10.39,10.39,0,0,1,6.37,1.37,9.18,9.18,0,0,1,3,2.69,4.25,4.25,0,0,1,2.4,1.63c1.55,2,1.85,5.46.92,10.19,1.36,1,.59,3.74.31,4.69-.65,2.3-1.36,3.53-2.22,3.88a1.29,1.29,0,0,1-.42.1A15,15,0,0,1,45.19,29V33a81.44,81.44,0,0,1,14.42,9.31,5.3,5.3,0,0,1,2,4.24Zm-21.5-1.28H60.35V46.51a4,4,0,0,0-1.55-3.24,78.4,78.4,0,0,0-14.28-9.21,1.12,1.12,0,0,1-.61-1V28.74l.06-.12a12.81,12.81,0,0,0,1.14-3.73l.13-.95.82.48c.09,0,.12,0,.15,0s.72-.41,1.48-3.05c.56-2,.55-3.2,0-3.39l-.54-.18.12-.56c1.2-5.68.36-8.35-.56-9.59a2.77,2.77,0,0,0-1.84-1.22l-.34,0-.17-.3a7.75,7.75,0,0,0-2.66-2.48A9,9,0,0,0,36,2.45a6.84,6.84,0,0,0-2.25.39A9.25,9.25,0,0,0,31.32,4.1a16.24,16.24,0,0,0-2.66,2.16,9.37,9.37,0,0,0-2.72,4.79,8.85,8.85,0,0,0,.23,5.37l.27.77-.82.07c-.39,0-.59.12-.72.31s-.42,1,.17,3.23c.8,2.81,1.46,3.11,1.47,3.11h.54l.05.53a13.68,13.68,0,0,0,1.63,4.72l.08.15v3.75a1.11,1.11,0,0,1-.6,1A75.74,75.74,0,0,0,14,43.25a4.3,4.3,0,0,0-1.56,3.26v6.26H32.63l2-8.93c-1.64-2.36-2.12-4.14-1.46-5.42.75-1.46,2.68-1.57,3.25-1.57s2.5.11,3.25,1.57c.66,1.28.18,3.06-1.46,5.42Z"/></svg>