<svg id="Layer_1" data-name="Layer 1" xmlns="http://www.w3.org/2000/svg" viewBox="0 0 73.11 70"><title>izi</title><path d="M68.7,8.61c-.77-.51-1.16-.47-1.39-.39L67,8.31C62,9.5,45.45,12.52,37.8,1.66A2.13,2.13,0,0,0,36.55,1a2.11,2.11,0,0,0-1.24.66C26.62,13.73,6.71,8.72,5.87,8.5a1.29,1.29,0,0,0-.36-.06,2.06,2.06,0,0,0-1.1.43L4.15,9c-.27.09-.3.58-.3.79C3.85,65.87,36,69,36.3,69h.51c.08,0,8.4-.61,16.58-8.57C63.77,50.31,69.25,32.8,69.25,9.79A1.27,1.27,0,0,0,68.7,8.61Zm-2.46,4.58C65.13,62.82,37.82,65.87,36.65,66h-.2C36.16,66,8,62.56,6.87,13.19l0-1.32,1.3.22c8.5,1.42,20.18,1.49,27.63-6.18l.78-.81.79.81c9.17,9.45,24.59,6.81,27.58,6.19l1.35-.28Z"/><path d="M52.1,24.86a1.48,1.48,0,0,0-.46-1.05,1.43,1.43,0,0,0-2.1,0L31.35,42l-7.52-7.53a1.49,1.49,0,1,0-2.1,2.1l8.58,8.58a1.42,1.42,0,0,0,2.09,0L51.64,25.91A1.48,1.48,0,0,0,52.1,24.86Z"/></svg>