<svg id="Layer_1" data-name="Layer 1" xmlns="http://www.w3.org/2000/svg" viewBox="0 0 73.11 70"><title>izi</title><path d="M62,6V3.39A2.4,2.4,0,0,0,59.55,1h-2a2.39,2.39,0,0,0-2.39,2.39V6H39.77V3.39A2.39,2.39,0,0,0,37.38,1h-2A2.4,2.4,0,0,0,33,3.39V6H17.6V3.39A2.39,2.39,0,0,0,15.21,1h-2a2.4,2.4,0,0,0-2.39,2.39V6A6.92,6.92,0,0,0,5,12.9V62.05a7,7,0,0,0,7,7H61.13a7,7,0,0,0,6.95-7V12.9A7,7,0,0,0,62,6ZM57,3.39a.57.57,0,0,1,.58-.57h2a.57.57,0,0,1,.58.57v6.92a.58.58,0,0,1-.58.58h-2a.58.58,0,0,1-.58-.58Zm-22.17,0a.57.57,0,0,1,.58-.57h2a.57.57,0,0,1,.58.57v6.92a.58.58,0,0,1-.58.58h-2a.58.58,0,0,1-.58-.58Zm-22.17,0a.57.57,0,0,1,.57-.57h2a.57.57,0,0,1,.58.57v6.92a.58.58,0,0,1-.58.58h-2a.58.58,0,0,1-.57-.58ZM66.27,62.05a5.14,5.14,0,0,1-5.14,5.13H12a5.14,5.14,0,0,1-5.14-5.13V23.55H66.27Zm0-40.32H6.84V12.9a5.13,5.13,0,0,1,4-5v2.43a2.4,2.4,0,0,0,2.39,2.39h2a2.4,2.4,0,0,0,2.4-2.39V7.76H33v2.56a2.4,2.4,0,0,0,2.39,2.39h2a2.4,2.4,0,0,0,2.39-2.39V7.76H55.19v2.56a2.4,2.4,0,0,0,2.39,2.39h2A2.4,2.4,0,0,0,62,10.32V7.83a5.15,5.15,0,0,1,4.32,5.07Z"/><path d="M24.08,37.51a4.19,4.19,0,1,0-4.18-4.19A4.18,4.18,0,0,0,24.08,37.51Z"/><circle cx="36.26" cy="33.32" r="4.19"/><circle cx="48.44" cy="33.32" r="4.19"/><path d="M24.08,49.9a4.19,4.19,0,1,0-4.18-4.19A4.19,4.19,0,0,0,24.08,49.9Z"/><circle cx="36.26" cy="45.71" r="4.19"/><circle cx="48.44" cy="45.71" r="4.19"/><circle cx="48.44" cy="58.1" r="4.19"/><path d="M24.08,62.28A4.19,4.19,0,1,0,19.9,58.1,4.18,4.18,0,0,0,24.08,62.28Z"/><circle cx="36.26" cy="58.1" r="4.19"/></svg>