<svg id="Layer_1" data-name="Layer 1" xmlns="http://www.w3.org/2000/svg" viewBox="0 0 120 120"><defs><style>.cls-1{fill:#fc5012;}.cls-2{fill:#fff;}</style></defs><title>izi</title><rect class="cls-1" width="120" height="120"/><g id="Symbols"><g id="Your-App-Icon-Copy-2"><path id="Combined-Shape" class="cls-2" d="M94.29,39a6.54,6.54,0,1,1,.35,0,8.68,8.68,0,0,1,4.49,1.15,3.48,3.48,0,0,1,1.87,3V84.6a3.73,3.73,0,0,1-2,2.94,8,8,0,0,1-4.61,1.37,7.75,7.75,0,0,1-4.59-1.32,3.67,3.67,0,0,1-1.87-3V43.22a3.49,3.49,0,0,1,1.82-3A8.43,8.43,0,0,1,94.29,39Zm-70,0a6.53,6.53,0,1,1,.35,0,8.64,8.64,0,0,1,4.48,1.15,3.46,3.46,0,0,1,1.87,3V84.6a3.73,3.73,0,0,1-2,2.94,7.91,7.91,0,0,1-4.61,1.37,7.72,7.72,0,0,1-4.58-1.32,3.67,3.67,0,0,1-1.87-3V43.22a3.49,3.49,0,0,1,1.82-3A8.43,8.43,0,0,1,24.32,39Zm52.21,9.2-.84,1.16a19.65,19.65,0,0,1-16,8.18H55.16l6.33-8.86H43.32a3.43,3.43,0,0,1-2.84-1.58,7,7,0,0,1,0-7.61A3.42,3.42,0,0,1,43.32,38H74.21a4.48,4.48,0,0,1,3.16,1.17,4.37,4.37,0,0,1,1.25,3.33A9.45,9.45,0,0,1,76.53,48.22Zm2.61,30.52a6.25,6.25,0,0,1,1.17,3.83,6.35,6.35,0,0,1-1.11,3.77,3.42,3.42,0,0,1-2.89,1.53H43.11a4.27,4.27,0,0,1-3.47-1.38,5,5,0,0,1-1.16-3.31,8.61,8.61,0,0,1,2.32-5.54l.81-1.13a19.68,19.68,0,0,1,16-8.23h3.88l.62,0-6.4,8.9h20.6A3.38,3.38,0,0,1,79.14,78.74Z"/></g></g></svg>