<?xml version="1.0" encoding="utf-8"?>
<!-- Generator: Adobe Illustrator 22.0.1, SVG Export Plug-In . SVG Version: 6.00 Build 0)  -->
<svg version="1.1" id="Layer_1" xmlns="http://www.w3.org/2000/svg" xmlns:xlink="http://www.w3.org/1999/xlink" x="0px" y="0px"
	 viewBox="0 0 60 60" style="enable-background:new 0 0 60 60;" xml:space="preserve">
<style type="text/css">
	.st0{fill:#FC5012;}
	.st1{fill:#FFFFFF;}
	.st2{fill:#7D7D7D;}
</style>
<g>
	<rect class="st2" width="60" height="60"/>
	<g id="Symbols_2_">
		<g id="Your-App-Icon-Copy-2_2_">
			<path id="Combined-Shape_2_" class="st1" d="M47.1,19.5C45.4,19.5,44,18,44,16.3c0-1.8,1.5-3.3,3.3-3.3s3.3,1.5,3.3,3.3
				c0,1.8-1.4,3.2-3.2,3.3c0.9,0,1.6,0.2,2.2,0.6c0.6,0.4,0.9,0.9,0.9,1.5v20.7c0,0.5-0.3,1-1,1.5c-0.7,0.5-1.4,0.7-2.3,0.7
				c-0.9,0-1.7-0.2-2.3-0.7c-0.6-0.4-0.9-0.9-0.9-1.5V21.6c0-0.6,0.3-1.1,0.9-1.5C45.5,19.7,46.2,19.5,47.1,19.5z M12.2,19.5
				C10.4,19.5,9,18,9,16.3c0-1.8,1.5-3.3,3.3-3.3c1.8,0,3.3,1.5,3.3,3.3c0,1.8-1.4,3.2-3.2,3.3c0.9,0,1.6,0.2,2.2,0.6
				c0.6,0.4,0.9,0.9,0.9,1.5v20.7c0,0.5-0.3,1-1,1.5c-0.7,0.5-1.4,0.7-2.3,0.7c-0.9,0-1.7-0.2-2.3-0.7C9.3,43.4,9,42.9,9,42.3V21.6
				c0-0.6,0.3-1.1,0.9-1.5C10.5,19.7,11.2,19.5,12.2,19.5z M38.3,24.1l-0.4,0.6c-1.8,2.6-4.8,4.1-8,4.1h-2.3l3.2-4.4h-9.1
				c-0.6,0-1-0.3-1.4-0.8c-0.4-0.5-0.6-1.2-0.6-1.9c0-0.7,0.2-1.4,0.5-1.9c0.4-0.5,0.8-0.8,1.4-0.8h15.4c0.6,0,1.2,0.2,1.6,0.6
				c0.4,0.4,0.6,0.9,0.6,1.7C39.3,22.2,39,23.2,38.3,24.1z M39.6,39.4c0.4,0.5,0.6,1.2,0.6,1.9c0,0.7-0.2,1.4-0.6,1.9
				c-0.4,0.5-0.8,0.8-1.4,0.8H21.6c-0.8,0-1.4-0.2-1.7-0.7c-0.4-0.5-0.6-1-0.6-1.7c0-0.9,0.4-1.8,1.2-2.8l0.4-0.6
				c1.8-2.6,4.8-4.1,8-4.1h1.9l0.3,0l-3.2,4.4h10.3C38.7,38.6,39.2,38.8,39.6,39.4z"/>
		</g>
	</g>
</g>
</svg>
