<?xml version="1.0" encoding="utf-8"?>
<!-- Generator: Adobe Illustrator 22.0.1, SVG Export Plug-In . SVG Version: 6.00 Build 0)  -->
<svg version="1.1" id="Layer_1" xmlns="http://www.w3.org/2000/svg" xmlns:xlink="http://www.w3.org/1999/xlink" x="0px" y="0px"
	 viewBox="0 0 26 26" style="enable-background:new 0 0 26 26;" xml:space="preserve">
<style type="text/css">
	.st0{fill:#FC5012;}
	.st1{fill:#FFFFFF;}
	.st2{fill:#7D7D7D;}
</style>
<path class="st1" d="M25.7,24.3l-7.9-7.9c1.4-1.7,2.3-3.9,2.3-6.4c0-5.5-4.5-10-10-10S0,4.5,0,10s4.5,10,10,10
	c2.4,0,4.6-0.9,6.4-2.3l7.9,7.9c0.2,0.2,0.5,0.3,0.7,0.3s0.5-0.1,0.7-0.3C26.1,25.3,26.1,24.7,25.7,24.3z M2,10c0-4.4,3.6-8,8-8
	c4.4,0,8,3.6,8,8s-3.6,8-8,8C5.6,18.1,2,14.5,2,10z"/>
</svg>
